<svg width="688" height="716" viewBox="0 0 688 716" fill="none" xmlns="http://www.w3.org/2000/svg">
<g clip-path="url(#clip0_25_214)">
<path d="M505.146 689.404L462.337 662.449L518.097 678.198C553.127 645.185 578.788 599.447 578.788 599.447C578.788 599.447 484.967 542.931 427.174 558.013C369.381 573.094 358.29 612.252 369.502 654.061C380.713 695.869 409.98 724.495 467.773 709.414C480.636 706.057 493.271 698.742 505.146 689.404Z" fill="#F2F2F2"/>
<path d="M458.079 653.755L455.231 654.499C422.073 662.973 394.76 664.206 373.67 658.143C373.361 658.06 373.062 657.96 372.753 657.876L373.176 656.471L373.6 655.125C396.46 661.991 425.365 658.988 454.288 651.604C455.223 651.375 456.171 651.142 457.113 650.882C469.328 647.649 481.498 643.685 493.197 639.367C494.105 639.04 495.024 638.696 495.942 638.352C511.353 632.574 525.865 626.257 538.374 620.403C539.26 619.993 540.142 619.569 541.01 619.149C562.141 609.155 577.115 600.677 580.422 598.772C580.829 598.547 581.05 598.415 581.103 598.386L581.838 599.609L581.856 599.619L582.595 600.855C582.542 600.884 581.801 601.33 580.411 602.109C575.226 605.055 561.103 612.879 542.124 621.895C541.266 622.298 540.384 622.721 539.498 623.131C529.352 627.893 517.94 632.94 505.827 637.738C502.787 638.948 499.777 640.105 496.799 641.21C495.884 641.568 494.966 641.912 494.057 642.238C481.412 646.908 469.419 650.747 458.079 653.755Z" fill="white"/>
<path d="M542.124 621.895C541.747 620.996 541.366 620.083 541.01 619.149C540.039 616.613 539.2 614.03 538.497 611.41C535.487 600.245 535.055 588.557 537.232 577.206C536.328 576.817 535.424 576.427 534.502 576.028C532.099 587.998 532.501 600.352 535.677 612.146C536.427 614.943 537.328 617.699 538.374 620.403C538.726 621.323 539.107 622.236 539.498 623.131C542.679 630.533 546.982 637.416 552.259 643.543C552.874 642.742 553.479 641.959 554.074 641.194C549.149 635.377 545.122 628.873 542.124 621.895Z" fill="white"/>
<path d="M496.799 641.21C496.485 640.265 496.2 639.312 495.942 638.352C495.85 638.064 495.768 637.758 495.689 637.466C492.444 625.364 492.214 612.668 495.017 600.46C497.82 588.251 503.575 576.892 511.79 567.352C510.809 567.013 509.827 566.673 508.836 566.352C500.58 576.216 494.826 587.878 492.049 600.373C489.272 612.868 489.553 625.835 492.869 638.202C492.973 638.591 493.078 638.981 493.197 639.366C493.472 640.337 493.757 641.289 494.057 642.238C498.811 656.89 507.743 669.882 519.785 679.659C520.497 678.997 521.21 678.335 521.919 677.658C510.129 668.179 501.399 655.512 496.799 641.21Z" fill="white"/>
<path d="M458.079 653.755C457.733 652.804 457.416 651.845 457.112 650.882C456.79 649.849 456.482 648.813 456.203 647.77C451.861 631.504 452.977 614.288 459.384 598.7C465.791 583.112 477.144 569.991 491.743 561.301C490.433 560.973 489.137 560.641 487.834 560.341C473.427 569.6 462.343 583.102 456.159 598.929C449.974 614.756 449.003 632.103 453.382 648.506C453.662 649.549 453.956 650.589 454.288 651.604C454.581 652.584 454.899 653.543 455.231 654.499C462.065 673.762 476.065 689.743 494.395 699.205C495.36 698.641 496.3 698.038 497.254 697.432C478.935 688.452 464.883 672.786 458.079 653.755Z" fill="white"/>
<path d="M401.438 710.796L189.741 626.737C177.056 621.683 166.92 611.872 161.558 599.455C156.196 587.039 156.046 573.031 161.14 560.505L376.83 31.8984C381.952 19.3841 391.898 9.38533 404.485 4.09578C417.072 -1.19377 431.271 -1.34213 443.969 3.68323L655.665 87.7428C668.351 92.7965 678.486 102.608 683.848 115.024C689.21 127.441 689.361 141.449 684.266 153.974L468.577 682.581C463.454 695.096 453.508 705.094 440.921 710.384C428.335 715.673 414.135 715.822 401.438 710.796Z" fill="#3F3D56"/>
<path d="M647.314 101.462L623.75 92.1053C621.646 91.2722 619.293 91.2966 617.207 92.1731C615.122 93.0496 613.474 94.7066 612.625 96.7804C610.89 101.02 607.521 104.408 603.257 106.2C598.992 107.992 594.182 108.042 589.88 106.339L474.633 60.577C470.335 58.8656 466.901 55.5419 465.084 51.3353C463.268 47.1287 463.217 42.383 464.944 38.1398C465.788 36.0643 465.764 33.7431 464.875 31.6856C463.987 29.6281 462.307 28.0024 460.205 27.1653L439.427 18.915C429.797 15.1051 419.027 15.2183 409.482 19.23C399.936 23.2417 392.392 30.8242 388.506 40.3148L174.349 565.164C170.487 574.664 170.601 585.288 174.668 594.705C178.735 604.122 186.421 611.563 196.042 615.397L403.929 697.944C413.559 701.754 424.328 701.641 433.874 697.629C443.42 693.618 450.963 686.035 454.85 676.545L669.007 151.695C672.869 142.195 672.754 131.571 668.688 122.155C664.621 112.738 656.935 105.296 647.314 101.462Z" fill="white"/>
<path d="M566.703 81.6976L501.686 55.881C501.07 55.6364 500.578 55.1606 500.318 54.5581C500.058 53.9556 500.051 53.2758 500.299 52.6683C500.547 52.0608 501.029 51.5753 501.64 51.3186C502.251 51.062 502.94 51.0552 503.556 51.2997L568.573 77.1164C568.877 77.2374 569.155 77.4166 569.39 77.6436C569.625 77.8705 569.812 78.1409 569.941 78.4392C570.069 78.7376 570.137 79.058 570.141 79.3822C570.144 79.7065 570.083 80.0282 569.96 80.329C569.837 80.6298 569.656 80.9038 569.425 81.1354C569.195 81.367 568.921 81.5516 568.619 81.6787C568.316 81.8058 567.992 81.8729 567.663 81.8761C567.334 81.8794 567.008 81.8187 566.703 81.6976Z" fill="white"/>
<path d="M577.855 85.4391C578.961 85.4391 579.857 84.5547 579.857 83.4637C579.857 82.3727 578.961 81.4883 577.855 81.4883C576.749 81.4883 575.852 82.3727 575.852 83.4637C575.852 84.5547 576.749 85.4391 577.855 85.4391Z" fill="white"/>
<path d="M620.339 315.937C619.231 315.495 618.346 314.639 617.878 313.555C617.41 312.47 617.397 311.247 617.841 310.154L650.741 229.523C651.189 228.431 652.057 227.558 653.156 227.097C654.255 226.636 655.494 226.624 656.602 227.064C657.71 227.504 658.595 228.36 659.063 229.443C659.532 230.527 659.546 231.749 659.101 232.843L626.201 313.473C625.753 314.566 624.885 315.439 623.786 315.901C622.687 316.362 621.447 316.375 620.339 315.937Z" fill="#3F3D56"/>
<path d="M335.345 133.566C334.238 133.125 333.353 132.269 332.885 131.185C332.416 130.1 332.403 128.877 332.848 127.784L340.325 109.459C340.546 108.916 340.872 108.422 341.286 108.004C341.7 107.586 342.194 107.253 342.739 107.024C343.283 106.794 343.869 106.673 344.461 106.667C345.053 106.661 345.641 106.77 346.19 106.988C346.74 107.206 347.24 107.529 347.663 107.938C348.086 108.347 348.423 108.835 348.655 109.373C348.886 109.91 349.008 110.488 349.013 111.072C349.019 111.657 348.907 112.236 348.685 112.778L341.207 131.103C340.76 132.196 339.892 133.069 338.793 133.531C337.694 133.992 336.454 134.005 335.345 133.566Z" fill="#3F3D56"/>
<path d="M321.512 167.468C320.405 167.026 319.52 166.17 319.052 165.086C318.583 164.002 318.57 162.779 319.015 161.685L326.492 143.36C326.713 142.817 327.039 142.323 327.453 141.905C327.867 141.487 328.361 141.154 328.906 140.924C329.45 140.695 330.036 140.573 330.628 140.567C331.22 140.561 331.808 140.67 332.358 140.888C332.907 141.107 333.408 141.43 333.831 141.839C334.254 142.248 334.591 142.736 334.822 143.273C335.054 143.811 335.176 144.389 335.181 144.973C335.186 145.558 335.074 146.137 334.852 146.679L327.375 165.004C326.927 166.097 326.059 166.97 324.96 167.432C323.861 167.894 322.621 167.907 321.512 167.468Z" fill="#3F3D56"/>
<path d="M520.151 245.293L430.22 209.584C428.377 208.847 426.905 207.42 426.126 205.616C425.347 203.811 425.323 201.776 426.061 199.954L447.644 147.058C448.391 145.24 449.837 143.788 451.666 143.019C453.495 142.25 455.558 142.227 457.405 142.954L547.335 178.664C549.178 179.401 550.65 180.827 551.429 182.631C552.209 184.435 552.233 186.471 551.496 188.292L529.912 241.189C529.165 243.007 527.719 244.458 525.89 245.227C524.061 245.996 521.998 246.02 520.151 245.293ZM455.888 146.676C455.042 146.343 454.097 146.354 453.258 146.706C452.42 147.059 451.757 147.724 451.415 148.557L429.833 201.45C429.495 202.285 429.506 203.218 429.864 204.045C430.221 204.872 430.896 205.526 431.74 205.864L521.665 241.571C522.511 241.904 523.458 241.893 524.296 241.541C525.135 241.188 525.798 240.522 526.141 239.689L547.723 186.797C548.061 185.962 548.049 185.029 547.692 184.202C547.335 183.375 546.66 182.721 545.815 182.384L455.888 146.676Z" fill="#3F3D56"/>
<path d="M520.684 211.634L520.679 211.632L451.259 184.066C450.291 183.679 449.467 183.008 448.9 182.143C448.333 181.278 448.049 180.261 448.088 179.232L449.398 147.157C449.431 146.358 449.658 145.578 450.06 144.883C450.461 144.188 451.026 143.599 451.707 143.164C452.387 142.729 453.164 142.462 453.971 142.384C454.778 142.307 455.592 142.422 456.345 142.719L548.217 179.021C549.459 179.512 550.454 180.468 550.984 181.679C551.514 182.891 551.537 184.261 551.047 185.489L551.348 185.786L548.467 188.617L548.467 188.616L526.148 210.538C525.447 211.229 524.555 211.701 523.583 211.896C522.612 212.091 521.604 212 520.684 211.634Z" fill="#3F3D56"/>
<path d="M468.555 213.967L437.68 201.707C436.919 201.404 436.312 200.817 435.991 200.073C435.67 199.329 435.661 198.489 435.968 197.739C436.274 196.989 436.869 196.389 437.623 196.072C438.377 195.755 439.228 195.746 439.989 196.048L470.864 208.307C471.624 208.61 472.232 209.198 472.553 209.942C472.874 210.686 472.882 211.525 472.576 212.275C472.27 213.026 471.675 213.625 470.921 213.942C470.166 214.259 469.315 214.268 468.555 213.967V213.967Z" fill="#3F3D56"/>
<path d="M487.67 203.819C491.844 203.819 495.228 200.481 495.228 196.363C495.228 192.245 491.844 188.907 487.67 188.907C483.496 188.907 480.112 192.245 480.112 196.363C480.112 200.481 483.496 203.819 487.67 203.819Z" fill="white"/>
<path d="M386.05 573.944L296.119 538.234C294.276 537.497 292.804 536.071 292.025 534.267C291.246 532.462 291.222 530.427 291.96 528.605L313.543 475.709C314.29 473.891 315.736 472.439 317.565 471.67C319.394 470.901 321.457 470.878 323.304 471.605L413.235 507.315C415.077 508.052 416.549 509.478 417.328 511.282C418.108 513.086 418.132 515.121 417.395 516.943L395.811 569.84C395.064 571.657 393.618 573.109 391.789 573.878C389.96 574.647 387.897 574.671 386.05 573.944ZM321.788 475.327C320.941 474.994 319.996 475.005 319.157 475.357C318.319 475.71 317.656 476.375 317.314 477.208L295.732 530.101C295.394 530.936 295.405 531.869 295.763 532.696C296.12 533.523 296.795 534.177 297.639 534.515L387.564 570.221C388.41 570.555 389.357 570.544 390.195 570.192C391.034 569.839 391.697 569.173 392.04 568.34L413.622 515.448C413.96 514.613 413.948 513.68 413.591 512.853C413.234 512.026 412.559 511.372 411.714 511.035L321.788 475.327Z" fill="#3F3D56"/>
<path d="M386.584 540.284L386.579 540.282L317.158 512.717C316.19 512.33 315.367 511.659 314.799 510.794C314.232 509.929 313.948 508.912 313.987 507.883L315.298 475.808C315.33 475.009 315.557 474.229 315.959 473.534C316.361 472.839 316.925 472.25 317.606 471.815C318.287 471.38 319.063 471.113 319.87 471.035C320.677 470.958 321.492 471.073 322.244 471.37L414.117 507.672C415.358 508.163 416.353 509.119 416.883 510.33C417.413 511.542 417.436 512.911 416.946 514.14L417.247 514.437L414.367 517.268L414.366 517.267L392.047 539.189C391.346 539.88 390.454 540.352 389.482 540.547C388.511 540.742 387.503 540.65 386.584 540.284Z" fill="#3F3D56"/>
<path d="M334.454 542.618L303.579 530.358C302.819 530.055 302.211 529.468 301.89 528.723C301.569 527.979 301.561 527.14 301.867 526.39C302.173 525.64 302.768 525.04 303.522 524.723C304.277 524.406 305.127 524.397 305.888 524.699L336.763 536.958C337.14 537.108 337.483 537.329 337.773 537.61C338.063 537.89 338.294 538.224 338.453 538.592C338.612 538.961 338.696 539.357 338.701 539.757C338.705 540.158 338.629 540.555 338.477 540.927C338.325 541.298 338.101 541.637 337.817 541.923C337.533 542.209 337.194 542.437 336.821 542.594C336.447 542.751 336.046 542.834 335.64 542.838C335.234 542.842 334.831 542.767 334.454 542.618Z" fill="#3F3D56"/>
<path d="M353.569 532.47C357.743 532.47 361.127 529.132 361.127 525.014C361.127 520.896 357.743 517.558 353.569 517.558C349.395 517.558 346.011 520.896 346.011 525.014C346.011 529.132 349.395 532.47 353.569 532.47Z" fill="white"/>
<path d="M421.678 439.98C467.334 439.98 504.346 403.469 504.346 358.43C504.346 313.391 467.334 276.879 421.678 276.879C376.022 276.879 339.01 313.391 339.01 358.43C339.01 403.469 376.022 439.98 421.678 439.98Z" fill="#2D2775"/>
<path d="M453.051 409.599L363.12 373.89C361.277 373.153 359.805 371.726 359.026 369.922C358.247 368.117 358.223 366.082 358.961 364.26L380.544 311.364C381.291 309.546 382.737 308.094 384.566 307.325C386.395 306.557 388.458 306.533 390.305 307.261L480.235 342.97C482.078 343.707 483.55 345.133 484.329 346.937C485.109 348.741 485.133 350.777 484.396 352.598L462.812 405.495C462.065 407.313 460.619 408.764 458.79 409.533C456.961 410.302 454.898 410.326 453.051 409.599ZM388.789 310.982C387.942 310.649 386.997 310.66 386.158 311.012C385.32 311.365 384.657 312.03 384.315 312.863L362.733 365.756C362.395 366.591 362.406 367.524 362.764 368.351C363.121 369.178 363.796 369.832 364.64 370.17L454.565 405.877C455.411 406.21 456.358 406.199 457.196 405.847C458.035 405.494 458.698 404.829 459.041 403.995L480.623 351.103C480.961 350.268 480.949 349.335 480.592 348.508C480.235 347.681 479.56 347.028 478.715 346.69L388.789 310.982Z" fill="#D2D2D2"/>
<path d="M453.585 375.939L453.58 375.937L384.159 348.372C383.191 347.985 382.368 347.313 381.8 346.448C381.233 345.583 380.949 344.567 380.988 343.538L382.299 311.463C382.331 310.664 382.558 309.884 382.96 309.189C383.361 308.494 383.926 307.904 384.607 307.47C385.288 307.035 386.064 306.767 386.871 306.69C387.678 306.613 388.492 306.727 389.245 307.025L481.118 343.326C482.359 343.818 483.354 344.773 483.884 345.985C484.414 347.197 484.437 348.566 483.947 349.794L484.248 350.092L481.368 352.922L481.367 352.922L459.048 374.844C458.347 375.535 457.455 376.007 456.483 376.202C455.512 376.397 454.504 376.305 453.585 375.939Z" fill="#D2D2D2"/>
<path d="M401.455 378.272L370.58 366.013C369.82 365.71 369.212 365.122 368.891 364.378C368.57 363.634 368.562 362.795 368.868 362.045C369.174 361.294 369.769 360.695 370.523 360.378C371.278 360.061 372.128 360.052 372.889 360.353L403.764 372.613C404.525 372.915 405.132 373.503 405.453 374.247C405.774 374.991 405.783 375.831 405.476 376.581C405.17 377.331 404.575 377.931 403.821 378.248C403.067 378.565 402.216 378.574 401.455 378.272Z" fill="#D2D2D2"/>
<path d="M198.283 418.124C198.291 416.563 197.952 415.021 197.29 413.604C196.629 412.187 195.66 410.93 194.453 409.923C193.245 408.915 191.829 408.181 190.302 407.771C188.776 407.362 187.178 407.288 185.62 407.554L167.006 374.374L157.739 391.832L176.836 420.664C177.463 423.217 179.017 425.454 181.204 426.952C183.391 428.45 186.06 429.104 188.703 428.791C191.347 428.478 193.782 427.219 195.548 425.253C197.313 423.287 198.287 420.75 198.283 418.124H198.283Z" fill="#9E616A"/>
<path d="M186.257 284.1L167.115 282.776C167.115 282.776 164.758 282.459 158.273 292.602C151.789 302.746 129.563 354.182 129.563 354.182L168.503 409.938L181.15 397.518L158.539 352.654L180.212 322.627L186.257 284.1Z" fill="#CACACA"/>
<path d="M397.277 344.377C395.994 344.859 394.619 345.059 393.25 344.961C391.881 344.862 390.55 344.469 389.351 343.809C388.152 343.149 387.115 342.237 386.312 341.138C385.509 340.04 384.96 338.781 384.704 337.45L351.685 332.655L363.24 319.896L392.823 326.406C395.118 326.13 397.435 326.693 399.337 327.989C401.239 329.286 402.592 331.225 403.141 333.44C403.69 335.655 403.396 337.992 402.315 340.008C401.235 342.023 399.442 343.578 397.277 344.377Z" fill="#9E616A"/>
<path d="M270.356 701.166H284.466L291.178 647.479L270.355 647.479L270.356 701.166Z" fill="#9E616A"/>
<path d="M266.758 696.622L270.729 696.622L286.234 690.401L294.544 696.621H294.546C299.242 696.621 303.746 698.461 307.067 701.737C310.387 705.013 312.253 709.456 312.253 714.089V714.657L266.758 714.658L266.758 696.622Z" fill="#2F2E41"/>
<path d="M185.245 701.166H199.354L206.067 647.479L185.243 647.479L185.245 701.166Z" fill="#9E616A"/>
<path d="M181.646 696.622L185.617 696.622L201.122 690.401L209.433 696.621H209.434C214.13 696.621 218.634 698.461 221.955 701.737C225.276 705.013 227.141 709.456 227.142 714.089V714.657L181.647 714.658L181.646 696.622Z" fill="#2F2E41"/>
<path d="M190.687 436.794L181.362 492.248L184.497 670.504H207.45L242.713 481.949L268.079 667.405L291.157 666.419L302.674 479.221L292.325 431.438L190.687 436.794Z" fill="#2F2E41"/>
<path d="M275.02 271.882L250.454 268.311L245.231 254.933L210.622 254.886L202.845 272.354L167.479 282.887L196.78 382.18C196.78 382.18 180.632 419.08 184.603 419.238C188.575 419.397 190.532 424.999 187.761 427.942C184.991 430.886 179.433 429.014 182.212 433.485C183.804 435.905 184.871 438.624 185.344 441.471C185.344 441.471 302.53 466.151 296.038 434.326C295.231 430.37 285.439 375.561 285.439 375.561C285.439 375.561 293.966 366.254 290.322 362.555C286.678 358.856 288.602 319.793 288.602 319.793L275.02 271.882Z" fill="#CACACA"/>
<path d="M270.999 276.221L275.02 271.882L329.644 303.478L375.864 321.662L376.76 337.571L316.733 330.5L274.249 310.008L270.999 276.221Z" fill="#CACACA"/>
<path d="M255.811 216.567C255.811 220.312 255.063 224.022 253.61 227.482C252.157 230.943 250.027 234.088 247.342 236.736C244.657 239.385 241.469 241.486 237.961 242.92C234.453 244.353 230.693 245.091 226.895 245.091C224.618 245.088 222.349 244.826 220.133 244.311C214.851 243.06 210.034 240.368 206.231 236.542C202.428 232.717 199.794 227.912 198.63 222.679C197.466 217.445 197.82 211.994 199.649 206.95C201.479 201.905 204.712 197.471 208.977 194.154C213.243 190.837 218.369 188.772 223.768 188.194C229.168 187.617 234.623 188.551 239.51 190.89C244.397 193.228 248.517 196.877 251.4 201.418C254.283 205.959 255.811 211.209 255.811 216.566V216.567Z" fill="#9E616A"/>
<path d="M234.641 239.697L213.873 243.649C211.938 244.165 209.91 244.248 207.939 243.891C204.849 243.089 202.779 240.277 201.199 237.538C193.866 224.711 191.557 209.677 194.708 195.283C195.418 192.106 196.934 188.465 200.166 187.818C201.105 187.63 202.167 187.704 202.91 187.108C204.005 186.23 203.645 184.368 202.57 183.466C201.401 182.672 200.023 182.23 198.605 182.195C199.521 181.132 200.656 180.273 201.933 179.673C203.211 179.074 204.602 178.748 206.017 178.717L200.462 175.672C203.137 173.841 206.732 174.008 209.889 174.799C213.045 175.591 216.083 176.931 219.325 177.23C223.397 177.607 227.414 176.316 231.471 175.818C237.526 175.17 243.642 176.249 249.093 178.925C254.545 181.602 259.105 185.765 262.231 190.921C263.333 192.64 264.031 194.581 264.275 196.601C264.386 197.611 264.258 198.633 263.899 199.586C263.54 200.538 262.961 201.395 262.207 202.088C259.933 203.975 256.351 203.698 254.148 205.665C252.45 207.181 252.027 209.63 251.931 211.888C251.835 214.145 251.944 216.504 250.964 218.546C249.983 220.588 247.423 222.123 245.377 221.108C245.287 218.312 242.019 216.332 239.244 216.909C236.469 217.487 234.419 219.977 233.621 222.661C232.822 225.346 233.059 228.215 233.407 230.992C233.755 233.768 234.207 236.578 233.817 239.349" fill="#2F2E41"/>
<path d="M417.344 368.952C421.518 368.952 424.902 365.614 424.902 361.496C424.902 357.379 421.518 354.041 417.344 354.041C413.169 354.041 409.786 357.379 409.786 361.496C409.786 365.614 413.169 368.952 417.344 368.952Z" fill="#2D2775"/>
<path d="M580.987 716H1.06672C0.784333 715.999 0.513786 715.888 0.314399 715.691C0.115012 715.494 0.00305176 715.226 0.00305176 714.948C0.00305176 714.669 0.115012 714.402 0.314399 714.205C0.513786 714.008 0.784333 713.896 1.06672 713.896H580.987C581.269 713.896 581.541 714.006 581.741 714.204C581.941 714.401 582.053 714.669 582.053 714.948C582.053 715.227 581.941 715.495 581.741 715.692C581.541 715.889 581.269 716 580.987 716Z" fill="#CACACA"/>
</g>
<defs>
<clipPath id="clip0_25_214">
<rect width="688" height="716" fill="white"/>
</clipPath>
</defs>
</svg>
