<svg width="774" height="554" viewBox="0 0 774 554" fill="none" xmlns="http://www.w3.org/2000/svg">
<g clip-path="url(#clip0_21_7)">
<path d="M450.854 97.6637C465.36 97.6637 477.12 86.0908 477.12 71.8149C477.12 57.5389 465.36 45.966 450.854 45.966C436.348 45.966 424.588 57.5389 424.588 71.8149C424.588 86.0908 436.348 97.6637 450.854 97.6637Z" fill="#F2F2F2"/>
<path d="M654.605 481.29C693.646 452.026 712.293 402.85 700.619 355.939C700.329 354.774 700.023 353.611 699.701 352.45C691.962 324.605 672.814 298.14 644.908 289.242C621.477 281.771 595.9 287.516 571.456 284.545C523.469 278.714 486.266 240.503 460.089 200.496C433.912 160.489 413.794 115.707 379.01 82.6555C321.675 28.1756 228.147 16.4461 157.06 51.9084C85.9726 87.3709 40.6908 166.047 42.6219 244.458C44.5532 322.869 91.8528 397.835 160.544 437.609C185.778 452.221 214.964 462.572 244.009 458.95C269.212 455.807 292.112 442.48 317.196 438.524C356.634 432.303 395.82 449.851 429.931 470.3C464.042 490.749 496.991 514.987 535.753 524.467C573.391 533.672 620.021 507.214 654.605 481.29Z" fill="#F2F2F2"/>
<path d="M598.513 53.555C597.657 52.9935 596.791 52.461 595.935 51.9189C571.196 36.3478 544.68 23.6981 516.934 14.2309L510.5 101.572H469.716V1.48113C467.148 0.95836 464.561 0.464632 461.974 -5.34058e-05V101.572H413.507C386.825 101.572 361.236 91.1414 342.369 72.574C323.502 54.0066 312.903 28.8238 312.903 2.56551V2.56542C310.306 3.11724 307.729 3.70778 305.152 4.33704V101.573H265.675L259.547 18.2873C231.034 29.0489 203.965 43.201 178.942 60.4285C178.509 60.7189 178.076 61.019 177.653 61.3094C175.479 62.81 173.335 64.3396 171.2 65.8885V399.097H287.543L285.487 371.071L274.175 217.192H501.991L490.679 371.071L488.623 399.097H603.677V56.924C601.965 55.7816 600.244 54.6586 598.513 53.555ZM305.152 191.78H272.306L266.236 109.201H305.152V191.78ZM461.974 191.78H406.808V190.144C406.808 189.357 406.65 188.578 406.344 187.852C406.038 187.125 405.589 186.465 405.024 185.91C404.458 185.354 403.787 184.913 403.048 184.613C402.309 184.313 401.518 184.159 400.719 184.161H376.736C375.937 184.16 375.147 184.315 374.409 184.616C373.671 184.916 373.001 185.357 372.437 185.912C371.872 186.468 371.424 187.128 371.119 187.854C370.813 188.58 370.656 189.358 370.657 190.144V191.78H312.903V109.201H461.974V191.78ZM469.716 191.78V109.201H509.94L503.87 191.78H469.716Z" fill="#3F3D56"/>
<path d="M0 420.435C8.54571 430.4 17.7889 439.765 27.6618 448.461L746.338 449.429C756.211 440.733 765.454 431.368 774 421.403L0 420.435Z" fill="#3F3D56"/>
<path d="M487.358 330.693V413.663C487.359 414.72 487.786 415.734 488.545 416.481C489.305 417.229 490.335 417.649 491.41 417.65H616.345C617.419 417.649 618.449 417.229 619.209 416.481C619.969 415.734 620.396 414.72 620.397 413.663V330.693C620.394 329.637 619.966 328.624 619.207 327.878C618.447 327.131 617.418 326.711 616.345 326.71H491.41C490.336 326.711 489.307 327.131 488.547 327.878C487.788 328.624 487.36 329.637 487.358 330.693Z" fill="#3F3D56"/>
<path d="M490.289 331.725V412.639C490.29 413.204 490.518 413.745 490.924 414.145C491.33 414.544 491.88 414.769 492.454 414.77H615.305C615.879 414.769 616.429 414.544 616.835 414.145C617.241 413.745 617.469 413.204 617.47 412.639V331.725C617.47 331.16 617.242 330.617 616.836 330.217C616.43 329.816 615.879 329.591 615.305 329.59H492.454C491.879 329.591 491.329 329.816 490.923 330.217C490.517 330.617 490.289 331.16 490.289 331.725Z" fill="#2D2775"/>
<path d="M484.745 429.844C484.974 430.126 485.265 430.354 485.596 430.51C485.927 430.666 486.29 430.746 486.657 430.744H620.433C620.799 430.744 621.16 430.663 621.49 430.508C621.82 430.353 622.111 430.127 622.342 429.848C622.572 429.568 622.736 429.241 622.822 428.891C622.908 428.541 622.914 428.177 622.839 427.825L620.762 418.117C620.676 417.721 620.491 417.353 620.223 417.046C619.956 416.738 619.614 416.502 619.23 416.357C618.951 416.25 618.655 416.195 618.356 416.195H488.725C488.426 416.195 488.13 416.25 487.852 416.357C487.467 416.502 487.126 416.738 486.858 417.046C486.59 417.353 486.405 417.721 486.319 418.117L484.242 427.825C484.168 428.177 484.175 428.541 484.262 428.89C484.349 429.239 484.514 429.565 484.745 429.844Z" fill="#2F2E41"/>
<path d="M613.766 420.376H616.926C617.191 420.376 617.406 420.165 617.406 419.904V418.416C617.406 418.155 617.191 417.943 616.926 417.943H613.766C613.501 417.943 613.286 418.155 613.286 418.416V419.904C613.286 420.165 613.501 420.376 613.766 420.376Z" fill="#3F3D56"/>
<path d="M605.526 420.376H608.685C608.95 420.376 609.166 420.165 609.166 419.904V418.416C609.166 418.155 608.95 417.943 608.685 417.943H605.526C605.26 417.943 605.045 418.155 605.045 418.416V419.904C605.045 420.165 605.26 420.376 605.526 420.376Z" fill="#3F3D56"/>
<path d="M597.285 420.376H600.445C600.71 420.376 600.925 420.165 600.925 419.904V418.416C600.925 418.155 600.71 417.943 600.445 417.943H597.285C597.02 417.943 596.805 418.155 596.805 418.416V419.904C596.805 420.165 597.02 420.376 597.285 420.376Z" fill="#3F3D56"/>
<path d="M589.045 420.376H592.204C592.47 420.376 592.685 420.165 592.685 419.904V418.416C592.685 418.155 592.47 417.943 592.204 417.943H589.045C588.779 417.943 588.564 418.155 588.564 418.416V419.904C588.564 420.165 588.779 420.376 589.045 420.376Z" fill="#3F3D56"/>
<path d="M580.804 420.376H583.964C584.229 420.376 584.444 420.165 584.444 419.904V418.416C584.444 418.155 584.229 417.943 583.964 417.943H580.804C580.539 417.943 580.324 418.155 580.324 418.416V419.904C580.324 420.165 580.539 420.376 580.804 420.376Z" fill="#3F3D56"/>
<path d="M572.564 420.376H575.723C575.989 420.376 576.204 420.165 576.204 419.904V418.416C576.204 418.155 575.989 417.943 575.723 417.943H572.564C572.298 417.943 572.083 418.155 572.083 418.416V419.904C572.083 420.165 572.298 420.376 572.564 420.376Z" fill="#3F3D56"/>
<path d="M564.323 420.376H567.483C567.748 420.376 567.963 420.165 567.963 419.904V418.416C567.963 418.155 567.748 417.943 567.483 417.943H564.323C564.058 417.943 563.843 418.155 563.843 418.416V419.904C563.843 420.165 564.058 420.376 564.323 420.376Z" fill="#3F3D56"/>
<path d="M556.083 420.376H559.242C559.508 420.376 559.723 420.165 559.723 419.904V418.416C559.723 418.155 559.508 417.943 559.242 417.943H556.083C555.817 417.943 555.602 418.155 555.602 418.416V419.904C555.602 420.165 555.817 420.376 556.083 420.376Z" fill="#3F3D56"/>
<path d="M547.842 420.376H551.002C551.267 420.376 551.482 420.165 551.482 419.904V418.416C551.482 418.155 551.267 417.943 551.002 417.943H547.842C547.577 417.943 547.362 418.155 547.362 418.416V419.904C547.362 420.165 547.577 420.376 547.842 420.376Z" fill="#3F3D56"/>
<path d="M539.602 420.376H542.761C543.027 420.376 543.242 420.165 543.242 419.904V418.416C543.242 418.155 543.027 417.943 542.761 417.943H539.602C539.336 417.943 539.121 418.155 539.121 418.416V419.904C539.121 420.165 539.336 420.376 539.602 420.376Z" fill="#3F3D56"/>
<path d="M531.361 420.376H534.521C534.786 420.376 535.001 420.165 535.001 419.904V418.416C535.001 418.155 534.786 417.943 534.521 417.943H531.361C531.096 417.943 530.881 418.155 530.881 418.416V419.904C530.881 420.165 531.096 420.376 531.361 420.376Z" fill="#3F3D56"/>
<path d="M523.121 420.376H526.28C526.546 420.376 526.761 420.165 526.761 419.904V418.416C526.761 418.155 526.546 417.943 526.28 417.943H523.121C522.855 417.943 522.64 418.155 522.64 418.416V419.904C522.64 420.165 522.855 420.376 523.121 420.376Z" fill="#3F3D56"/>
<path d="M514.88 420.376H518.04C518.305 420.376 518.52 420.165 518.52 419.904V418.416C518.52 418.155 518.305 417.943 518.04 417.943H514.88C514.615 417.943 514.4 418.155 514.4 418.416V419.904C514.4 420.165 514.615 420.376 514.88 420.376Z" fill="#3F3D56"/>
<path d="M506.64 420.376H509.799C510.065 420.376 510.28 420.165 510.28 419.904V418.416C510.28 418.155 510.065 417.943 509.799 417.943H506.64C506.374 417.943 506.159 418.155 506.159 418.416V419.904C506.159 420.165 506.374 420.376 506.64 420.376Z" fill="#3F3D56"/>
<path d="M498.399 420.376H501.559C501.824 420.376 502.039 420.165 502.039 419.904V418.416C502.039 418.155 501.824 417.943 501.559 417.943H498.399C498.134 417.943 497.919 418.155 497.919 418.416V419.904C497.919 420.165 498.134 420.376 498.399 420.376Z" fill="#3F3D56"/>
<path d="M490.159 420.376H493.318C493.584 420.376 493.799 420.165 493.799 419.904V418.416C493.799 418.155 493.584 417.943 493.318 417.943H490.159C489.893 417.943 489.678 418.155 489.678 418.416V419.904C489.678 420.165 489.893 420.376 490.159 420.376Z" fill="#3F3D56"/>
<path d="M613.863 424.431H617.023C617.288 424.431 617.503 424.22 617.503 423.959V422.471C617.503 422.21 617.288 421.998 617.023 421.998H613.863C613.598 421.998 613.383 422.21 613.383 422.471V423.959C613.383 424.22 613.598 424.431 613.863 424.431Z" fill="#3F3D56"/>
<path d="M605.623 424.431H608.783C609.048 424.431 609.263 424.22 609.263 423.959V422.471C609.263 422.21 609.048 421.998 608.783 421.998H605.623C605.358 421.998 605.143 422.21 605.143 422.471V423.959C605.143 424.22 605.358 424.431 605.623 424.431Z" fill="#3F3D56"/>
<path d="M597.382 424.431H600.542C600.807 424.431 601.022 424.22 601.022 423.959V422.471C601.022 422.21 600.807 421.998 600.542 421.998H597.382C597.117 421.998 596.902 422.21 596.902 422.471V423.959C596.902 424.22 597.117 424.431 597.382 424.431Z" fill="#3F3D56"/>
<path d="M589.142 424.431H592.302C592.567 424.431 592.782 424.22 592.782 423.959V422.471C592.782 422.21 592.567 421.998 592.302 421.998H589.142C588.877 421.998 588.662 422.21 588.662 422.471V423.959C588.662 424.22 588.877 424.431 589.142 424.431Z" fill="#3F3D56"/>
<path d="M580.902 424.431H584.061C584.327 424.431 584.542 424.22 584.542 423.959V422.471C584.542 422.21 584.327 421.998 584.061 421.998H580.902C580.636 421.998 580.421 422.21 580.421 422.471V423.959C580.421 424.22 580.636 424.431 580.902 424.431Z" fill="#3F3D56"/>
<path d="M572.661 424.431H575.821C576.086 424.431 576.301 424.22 576.301 423.959V422.471C576.301 422.21 576.086 421.998 575.821 421.998H572.661C572.396 421.998 572.181 422.21 572.181 422.471V423.959C572.181 424.22 572.396 424.431 572.661 424.431Z" fill="#3F3D56"/>
<path d="M564.421 424.431H567.58C567.846 424.431 568.061 424.22 568.061 423.959V422.471C568.061 422.21 567.846 421.998 567.58 421.998H564.421C564.155 421.998 563.94 422.21 563.94 422.471V423.959C563.94 424.22 564.155 424.431 564.421 424.431Z" fill="#3F3D56"/>
<path d="M556.18 424.431H559.34C559.605 424.431 559.82 424.22 559.82 423.959V422.471C559.82 422.21 559.605 421.998 559.34 421.998H556.18C555.915 421.998 555.7 422.21 555.7 422.471V423.959C555.7 424.22 555.915 424.431 556.18 424.431Z" fill="#3F3D56"/>
<path d="M547.939 424.431H551.099C551.364 424.431 551.579 424.22 551.579 423.959V422.471C551.579 422.21 551.364 421.998 551.099 421.998H547.939C547.674 421.998 547.459 422.21 547.459 422.471V423.959C547.459 424.22 547.674 424.431 547.939 424.431Z" fill="#3F3D56"/>
<path d="M539.699 424.431H542.859C543.124 424.431 543.339 424.22 543.339 423.959V422.471C543.339 422.21 543.124 421.998 542.859 421.998H539.699C539.434 421.998 539.219 422.21 539.219 422.471V423.959C539.219 424.22 539.434 424.431 539.699 424.431Z" fill="#3F3D56"/>
<path d="M531.458 424.431H534.618C534.883 424.431 535.098 424.22 535.098 423.959V422.471C535.098 422.21 534.883 421.998 534.618 421.998H531.458C531.193 421.998 530.978 422.21 530.978 422.471V423.959C530.978 424.22 531.193 424.431 531.458 424.431Z" fill="#3F3D56"/>
<path d="M523.218 424.431H526.378C526.643 424.431 526.858 424.22 526.858 423.959V422.471C526.858 422.21 526.643 421.998 526.378 421.998H523.218C522.953 421.998 522.738 422.21 522.738 422.471V423.959C522.738 424.22 522.953 424.431 523.218 424.431Z" fill="#3F3D56"/>
<path d="M514.977 424.431H518.137C518.402 424.431 518.617 424.22 518.617 423.959V422.471C518.617 422.21 518.402 421.998 518.137 421.998H514.977C514.712 421.998 514.497 422.21 514.497 422.471V423.959C514.497 424.22 514.712 424.431 514.977 424.431Z" fill="#3F3D56"/>
<path d="M506.737 424.431H509.897C510.162 424.431 510.377 424.22 510.377 423.959V422.471C510.377 422.21 510.162 421.998 509.897 421.998H506.737C506.472 421.998 506.257 422.21 506.257 422.471V423.959C506.257 424.22 506.472 424.431 506.737 424.431Z" fill="#3F3D56"/>
<path d="M498.496 424.431H501.656C501.921 424.431 502.136 424.22 502.136 423.959V422.471C502.136 422.21 501.921 421.998 501.656 421.998H498.496C498.231 421.998 498.016 422.21 498.016 422.471V423.959C498.016 424.22 498.231 424.431 498.496 424.431Z" fill="#3F3D56"/>
<path d="M490.256 424.431H493.416C493.681 424.431 493.896 424.22 493.896 423.959V422.471C493.896 422.21 493.681 421.998 493.416 421.998H490.256C489.991 421.998 489.776 422.21 489.776 422.471V423.959C489.776 424.22 489.991 424.431 490.256 424.431Z" fill="#3F3D56"/>
<path d="M545.467 429.297H577.469C577.734 429.297 577.949 429.085 577.949 428.824V427.337C577.949 427.076 577.734 426.864 577.469 426.864H545.467C545.202 426.864 544.987 427.076 544.987 427.337V428.824C544.987 429.085 545.202 429.297 545.467 429.297Z" fill="#3F3D56"/>
<path d="M511.563 347.292H508.765C507.917 347.292 507.23 347.968 507.23 348.803C507.23 349.638 507.917 350.314 508.765 350.314H511.563C512.411 350.314 513.098 349.638 513.098 348.803C513.098 347.968 512.411 347.292 511.563 347.292Z" fill="white"/>
<path d="M543.556 347.292H540.758C539.91 347.292 539.223 347.968 539.223 348.803C539.223 349.638 539.91 350.314 540.758 350.314H543.556C544.404 350.314 545.091 349.638 545.091 348.803C545.091 347.968 544.404 347.292 543.556 347.292Z" fill="white"/>
<path d="M552.621 347.292H549.823C548.975 347.292 548.288 347.968 548.288 348.803C548.288 349.638 548.975 350.314 549.823 350.314H552.621C553.469 350.314 554.156 349.638 554.156 348.803C554.156 347.968 553.469 347.292 552.621 347.292Z" fill="white"/>
<path d="M534.854 347.04H517.468C516.619 347.04 515.932 347.716 515.932 348.551C515.932 349.386 516.619 350.062 517.468 350.062H534.854C535.702 350.062 536.389 349.386 536.389 348.551C536.389 347.716 535.702 347.04 534.854 347.04Z" fill="white"/>
<path d="M577.511 347.04H560.125C559.277 347.04 558.589 347.716 558.589 348.551C558.589 349.386 559.277 350.062 560.125 350.062H577.511C578.359 350.062 579.047 349.386 579.047 348.551C579.047 347.716 578.359 347.04 577.511 347.04Z" fill="white"/>
<path d="M520.094 354.113H517.297C516.449 354.113 515.761 354.79 515.761 355.625C515.761 356.459 516.449 357.136 517.297 357.136H520.094C520.942 357.136 521.63 356.459 521.63 355.625C521.63 354.79 520.942 354.113 520.094 354.113Z" fill="white"/>
<path d="M552.087 354.113H549.29C548.442 354.113 547.754 354.79 547.754 355.625C547.754 356.459 548.442 357.136 549.29 357.136H552.087C552.936 357.136 553.623 356.459 553.623 355.625C553.623 354.79 552.936 354.113 552.087 354.113Z" fill="white"/>
<path d="M561.152 354.113H558.355C557.507 354.113 556.819 354.79 556.819 355.625C556.819 356.459 557.507 357.136 558.355 357.136H561.152C562 357.136 562.688 356.459 562.688 355.625C562.688 354.79 562 354.113 561.152 354.113Z" fill="white"/>
<path d="M543.385 353.862H525.999C525.151 353.862 524.463 354.538 524.463 355.373C524.463 356.207 525.151 356.884 525.999 356.884H543.385C544.233 356.884 544.921 356.207 544.921 355.373C544.921 354.538 544.233 353.862 543.385 353.862Z" fill="white"/>
<path d="M586.042 353.862H568.657C567.808 353.862 567.121 354.538 567.121 355.373C567.121 356.207 567.808 356.884 568.657 356.884H586.042C586.891 356.884 587.578 356.207 587.578 355.373C587.578 354.538 586.891 353.862 586.042 353.862Z" fill="white"/>
<path d="M528.626 360.935H525.828C524.98 360.935 524.293 361.612 524.293 362.447C524.293 363.281 524.98 363.958 525.828 363.958H528.626C529.474 363.958 530.161 363.281 530.161 362.447C530.161 361.612 529.474 360.935 528.626 360.935Z" fill="white"/>
<path d="M560.619 360.935H557.821C556.973 360.935 556.286 361.612 556.286 362.447C556.286 363.281 556.973 363.958 557.821 363.958H560.619C561.467 363.958 562.155 363.281 562.155 362.447C562.155 361.612 561.467 360.935 560.619 360.935Z" fill="white"/>
<path d="M569.684 360.935H566.886C566.038 360.935 565.351 361.612 565.351 362.447C565.351 363.281 566.038 363.958 566.886 363.958H569.684C570.532 363.958 571.219 363.281 571.219 362.447C571.219 361.612 570.532 360.935 569.684 360.935Z" fill="white"/>
<path d="M551.917 360.683H534.53C533.682 360.683 532.995 361.36 532.995 362.195C532.995 363.029 533.682 363.706 534.53 363.706H551.917C552.765 363.706 553.452 363.029 553.452 362.195C553.452 361.36 552.765 360.683 551.917 360.683Z" fill="white"/>
<path d="M594.574 360.683H577.188C576.34 360.683 575.652 361.36 575.652 362.195C575.652 363.029 576.34 363.706 577.188 363.706H594.574C595.422 363.706 596.11 363.029 596.11 362.195C596.11 361.36 595.422 360.683 594.574 360.683Z" fill="white"/>
<path d="M537.157 367.757H534.36C533.512 367.757 532.824 368.434 532.824 369.268C532.824 370.103 533.512 370.78 534.36 370.78H537.157C538.005 370.78 538.693 370.103 538.693 369.268C538.693 368.434 538.005 367.757 537.157 367.757Z" fill="white"/>
<path d="M569.15 367.757H566.353C565.505 367.757 564.817 368.434 564.817 369.268C564.817 370.103 565.505 370.78 566.353 370.78H569.15C569.999 370.78 570.686 370.103 570.686 369.268C570.686 368.434 569.999 367.757 569.15 367.757Z" fill="white"/>
<path d="M578.215 367.757H575.417C574.569 367.757 573.882 368.434 573.882 369.268C573.882 370.103 574.569 370.78 575.417 370.78H578.215C579.063 370.78 579.751 370.103 579.751 369.268C579.751 368.434 579.063 367.757 578.215 367.757Z" fill="white"/>
<path d="M560.448 367.505H543.062C542.214 367.505 541.526 368.182 541.526 369.016C541.526 369.851 542.214 370.528 543.062 370.528H560.448C561.296 370.528 561.984 369.851 561.984 369.016C561.984 368.182 561.296 367.505 560.448 367.505Z" fill="white"/>
<path d="M543.556 394.884H540.758C539.91 394.884 539.223 395.56 539.223 396.395C539.223 397.23 539.91 397.906 540.758 397.906H543.556C544.404 397.906 545.091 397.23 545.091 396.395C545.091 395.56 544.404 394.884 543.556 394.884Z" fill="white"/>
<path d="M552.621 394.884H549.823C548.975 394.884 548.288 395.56 548.288 396.395C548.288 397.23 548.975 397.906 549.823 397.906H552.621C553.469 397.906 554.156 397.23 554.156 396.395C554.156 395.56 553.469 394.884 552.621 394.884Z" fill="white"/>
<path d="M577.511 395.136H560.125C559.277 395.136 558.589 395.812 558.589 396.647C558.589 397.482 559.277 398.158 560.125 398.158H577.511C578.359 398.158 579.047 397.482 579.047 396.647C579.047 395.812 578.359 395.136 577.511 395.136Z" fill="white"/>
<path d="M511.563 394.884H508.765C507.917 394.884 507.23 395.56 507.23 396.395C507.23 397.23 507.917 397.906 508.765 397.906H511.563C512.411 397.906 513.098 397.23 513.098 396.395C513.098 395.56 512.411 394.884 511.563 394.884Z" fill="white"/>
<path d="M534.854 395.136H517.468C516.619 395.136 515.932 395.812 515.932 396.647C515.932 397.482 516.619 398.158 517.468 398.158H534.854C535.702 398.158 536.389 397.482 536.389 396.647C536.389 395.812 535.702 395.136 534.854 395.136Z" fill="white"/>
<path d="M520.094 388.062H517.297C516.449 388.062 515.761 388.738 515.761 389.573C515.761 390.408 516.449 391.084 517.297 391.084H520.094C520.942 391.084 521.63 390.408 521.63 389.573C521.63 388.738 520.942 388.062 520.094 388.062Z" fill="white"/>
<path d="M552.087 388.062H549.29C548.442 388.062 547.754 388.738 547.754 389.573C547.754 390.408 548.442 391.084 549.29 391.084H552.087C552.936 391.084 553.623 390.408 553.623 389.573C553.623 388.738 552.936 388.062 552.087 388.062Z" fill="white"/>
<path d="M561.152 388.062H558.355C557.507 388.062 556.819 388.738 556.819 389.573C556.819 390.408 557.507 391.084 558.355 391.084H561.152C562 391.084 562.688 390.408 562.688 389.573C562.688 388.738 562 388.062 561.152 388.062Z" fill="white"/>
<path d="M543.385 388.314H525.999C525.151 388.314 524.463 388.99 524.463 389.825C524.463 390.66 525.151 391.336 525.999 391.336H543.385C544.233 391.336 544.921 390.66 544.921 389.825C544.921 388.99 544.233 388.314 543.385 388.314Z" fill="white"/>
<path d="M528.626 381.24H525.828C524.98 381.24 524.293 381.917 524.293 382.751C524.293 383.586 524.98 384.263 525.828 384.263H528.626C529.474 384.263 530.161 383.586 530.161 382.751C530.161 381.917 529.474 381.24 528.626 381.24Z" fill="white"/>
<path d="M560.619 381.24H557.821C556.973 381.24 556.286 381.917 556.286 382.751C556.286 383.586 556.973 384.263 557.821 384.263H560.619C561.467 384.263 562.155 383.586 562.155 382.751C562.155 381.917 561.467 381.24 560.619 381.24Z" fill="white"/>
<path d="M569.684 381.24H566.886C566.038 381.24 565.351 381.917 565.351 382.751C565.351 383.586 566.038 384.263 566.886 384.263H569.684C570.532 384.263 571.219 383.586 571.219 382.751C571.219 381.917 570.532 381.24 569.684 381.24Z" fill="white"/>
<path d="M551.917 381.492H534.53C533.682 381.492 532.995 382.169 532.995 383.003C532.995 383.838 533.682 384.514 534.53 384.514H551.917C552.765 384.514 553.452 383.838 553.452 383.003C553.452 382.169 552.765 381.492 551.917 381.492Z" fill="white"/>
<path d="M537.157 374.418H534.36C533.512 374.418 532.824 375.095 532.824 375.929C532.824 376.764 533.512 377.441 534.36 377.441H537.157C538.005 377.441 538.693 376.764 538.693 375.929C538.693 375.095 538.005 374.418 537.157 374.418Z" fill="white"/>
<path d="M569.15 374.418H566.353C565.505 374.418 564.817 375.095 564.817 375.929C564.817 376.764 565.505 377.441 566.353 377.441H569.15C569.999 377.441 570.686 376.764 570.686 375.929C570.686 375.095 569.999 374.418 569.15 374.418Z" fill="white"/>
<path d="M578.215 374.418H575.417C574.569 374.418 573.882 375.095 573.882 375.929C573.882 376.764 574.569 377.441 575.417 377.441H578.215C579.063 377.441 579.751 376.764 579.751 375.929C579.751 375.095 579.063 374.418 578.215 374.418Z" fill="white"/>
<path d="M560.448 374.67H543.062C542.214 374.67 541.526 375.347 541.526 376.181C541.526 377.016 542.214 377.693 543.062 377.693H560.448C561.296 377.693 561.984 377.016 561.984 376.181C561.984 375.347 561.296 374.67 560.448 374.67Z" fill="white"/>
<path d="M496.69 474.833L483.558 454.404L524.778 422.067L541.791 403.518C544.002 401.108 546.816 399.311 549.953 398.307C553.09 397.302 556.44 397.126 559.668 397.795C562.896 398.464 565.889 399.955 568.348 402.12C570.807 404.284 572.646 407.045 573.681 410.128C575.215 414.696 574.885 419.672 572.761 424.005C570.638 428.338 566.887 431.69 562.299 433.353L535.396 443.107L496.69 474.833Z" fill="#A0616A"/>
<path d="M188.567 326.714V426.001H259.246V326.714C259.247 325.999 259.016 325.304 258.585 324.729C258.155 324.154 257.549 323.73 256.856 323.519C256.529 323.413 256.186 323.36 255.842 323.364H191.98C191.532 323.363 191.089 323.449 190.675 323.617C190.261 323.785 189.885 324.031 189.568 324.343C189.251 324.654 188.999 325.023 188.828 325.43C188.656 325.837 188.567 326.273 188.567 326.714ZM216.15 360.829C216.168 358.872 216.971 357.001 218.384 355.623C219.797 354.245 221.706 353.472 223.695 353.472C225.684 353.472 227.592 354.245 229.005 355.623C230.418 357.001 231.221 358.872 231.24 360.829V372.35C231.23 374.312 230.43 376.191 229.016 377.576C227.603 378.96 225.689 379.737 223.695 379.737C221.7 379.737 219.787 378.96 218.373 377.576C216.959 376.191 216.16 374.312 216.15 372.35V360.829Z" fill="#2F2E41"/>
<path d="M188.35 422.826V432.401C188.352 432.897 188.552 433.372 188.908 433.723C189.263 434.075 189.745 434.275 190.249 434.279H257.564C258.068 434.276 258.551 434.077 258.907 433.725C259.263 433.373 259.463 432.897 259.463 432.401V422.826H188.35Z" fill="#3F3D56"/>
<path d="M77.3784 177.124V358.409C77.3803 360.719 78.3136 362.934 79.9736 364.568C81.6335 366.201 83.8843 367.12 86.2318 367.122H359.21C361.558 367.12 363.809 366.201 365.469 364.568C367.129 362.934 368.062 360.719 368.064 358.409V177.124C368.058 174.815 367.123 172.603 365.464 170.972C363.804 169.341 361.556 168.423 359.21 168.42H86.2318C83.8863 168.423 81.6377 169.341 79.9783 170.972C78.3189 172.603 77.384 174.815 77.3784 177.124Z" fill="#3F3D56"/>
<path d="M83.7822 179.379V356.173C83.7844 357.407 84.2836 358.59 85.1705 359.463C86.0573 360.336 87.2596 360.827 88.5139 360.829H356.938C358.192 360.827 359.394 360.336 360.281 359.463C361.168 358.59 361.667 357.407 361.669 356.173V179.379C361.669 178.143 361.171 176.958 360.284 176.083C359.397 175.208 358.194 174.716 356.938 174.713H88.5139C87.2581 174.716 86.0547 175.208 85.1676 176.083C84.2806 176.958 83.7824 178.143 83.7822 179.379Z" fill="white"/>
<path d="M133.597 433.63C133.87 433.967 134.218 434.239 134.613 434.425C135.008 434.611 135.441 434.707 135.879 434.705H295.574C296.011 434.704 296.442 434.608 296.836 434.423C297.231 434.237 297.578 433.968 297.853 433.634C298.128 433.301 298.324 432.911 298.427 432.493C298.53 432.075 298.536 431.64 298.447 431.219L295.968 419.631C295.865 419.159 295.644 418.719 295.324 418.352C295.005 417.985 294.597 417.703 294.138 417.531C293.806 417.402 293.452 417.337 293.095 417.337H138.349C137.992 417.337 137.638 417.402 137.306 417.531C136.847 417.703 136.439 417.985 136.12 418.352C135.8 418.719 135.579 419.159 135.476 419.631L132.997 431.219C132.909 431.64 132.917 432.074 133.021 432.491C133.125 432.908 133.322 433.297 133.597 433.63Z" fill="#2F2E41"/>
<path d="M348.227 199.067H97.0635C96.8025 199.061 96.5541 198.955 96.3715 198.772C96.1889 198.588 96.0867 198.341 96.0867 198.084C96.0867 197.827 96.1889 197.58 96.3715 197.397C96.5541 197.213 96.8025 197.107 97.0635 197.101H348.227C348.488 197.107 348.736 197.213 348.919 197.397C349.101 197.58 349.204 197.827 349.204 198.084C349.204 198.341 349.101 198.588 348.919 198.772C348.736 198.955 348.488 199.061 348.227 199.067Z" fill="#3F3D56"/>
<path d="M114.16 192.082C117.393 192.082 120.014 189.446 120.014 186.193C120.014 182.941 117.393 180.304 114.16 180.304C110.928 180.304 108.307 182.941 108.307 186.193C108.307 189.446 110.928 192.082 114.16 192.082Z" fill="#3F3D56"/>
<path d="M134.382 192.082C137.614 192.082 140.235 189.446 140.235 186.193C140.235 182.941 137.614 180.304 134.382 180.304C131.149 180.304 128.528 182.941 128.528 186.193C128.528 189.446 131.149 192.082 134.382 192.082Z" fill="#3F3D56"/>
<path d="M154.603 192.082C157.836 192.082 160.456 189.446 160.456 186.193C160.456 182.941 157.836 180.304 154.603 180.304C151.37 180.304 148.749 182.941 148.749 186.193C148.749 189.446 151.37 192.082 154.603 192.082Z" fill="#3F3D56"/>
<path d="M336.05 181.761H321.688C321.404 181.767 321.134 181.883 320.936 182.083C320.737 182.283 320.626 182.551 320.626 182.83C320.626 183.11 320.737 183.378 320.936 183.578C321.134 183.778 321.404 183.894 321.688 183.9H336.05C336.336 183.896 336.609 183.782 336.809 183.582C337.01 183.381 337.122 183.112 337.122 182.83C337.122 182.549 337.01 182.28 336.809 182.079C336.609 181.879 336.336 181.765 336.05 181.761Z" fill="#3F3D56"/>
<path d="M336.05 185.778H321.688C321.404 185.785 321.134 185.9 320.935 186.1C320.736 186.3 320.625 186.568 320.625 186.848C320.625 187.128 320.736 187.396 320.935 187.596C321.134 187.796 321.404 187.912 321.688 187.918H336.05C336.336 187.914 336.61 187.8 336.811 187.6C337.012 187.4 337.124 187.13 337.124 186.848C337.124 186.567 337.012 186.296 336.811 186.096C336.61 185.896 336.336 185.782 336.05 185.778Z" fill="#3F3D56"/>
<path d="M336.05 189.796H321.688C321.404 189.802 321.134 189.918 320.936 190.118C320.737 190.318 320.626 190.586 320.626 190.866C320.626 191.145 320.737 191.413 320.936 191.613C321.134 191.813 321.404 191.929 321.688 191.935H336.05C336.336 191.931 336.609 191.817 336.809 191.617C337.01 191.417 337.122 191.147 337.122 190.866C337.122 190.584 337.01 190.315 336.809 190.114C336.609 189.914 336.336 189.8 336.05 189.796Z" fill="#3F3D56"/>
<path d="M682.295 427.028C682.728 428.27 683.55 429.345 684.643 430.098C685.736 430.851 687.043 431.244 688.377 431.221L714.437 430.561C715.781 430.535 717.08 430.082 718.141 429.269C719.201 428.457 719.966 427.328 720.321 426.052L724.008 387.244C725.317 387.828 726.741 388.116 728.177 388.087C729.425 388.056 730.654 387.784 731.795 387.286C732.936 386.787 733.965 386.073 734.826 385.183C735.686 384.293 736.359 383.245 736.808 382.098C737.256 380.952 737.471 379.73 737.44 378.502C737.408 377.274 737.132 376.065 736.625 374.942C736.119 373.819 735.393 372.806 734.488 371.96C733.584 371.113 732.519 370.45 731.354 370.009C730.19 369.567 728.948 369.356 727.7 369.387C727.126 369.385 726.554 369.444 725.992 369.562C725.382 368.912 724.64 368.395 723.814 368.044C722.988 367.693 722.097 367.517 721.198 367.526L681.111 368.545C680.779 368.557 680.448 368.597 680.122 368.665C679.243 368.827 678.409 369.171 677.677 369.676C676.945 370.181 676.331 370.835 675.877 371.593C675.422 372.351 675.138 373.196 675.044 374.071C674.949 374.946 675.046 375.831 675.329 376.666L682.295 427.028ZM724.765 384.609L727.389 375.361C727.687 374.293 727.694 373.166 727.409 372.094C727.536 372.094 727.648 372.035 727.776 372.034C729.575 371.998 731.316 372.665 732.616 373.889C733.916 375.114 734.67 376.796 734.712 378.566C734.754 380.337 734.081 382.052 732.841 383.335C731.6 384.618 729.893 385.364 728.094 385.411C726.931 385.446 725.78 385.169 724.765 384.609Z" fill="#2F2E41"/>
<path d="M680.123 368.665C680.977 373.471 690.578 376.849 702.124 376.262C712.741 375.781 721.422 372.112 723.012 367.764C722.424 367.592 721.812 367.512 721.198 367.526L681.111 368.544C680.779 368.557 680.448 368.597 680.123 368.665Z" fill="#3F3D56"/>
<path d="M704.24 405.703C704.293 405.689 704.343 405.668 704.388 405.638L710.048 401.993C710.116 401.949 710.172 401.889 710.211 401.818C710.25 401.748 710.271 401.668 710.271 401.588C710.271 401.508 710.25 401.429 710.211 401.358C710.173 401.287 710.116 401.227 710.048 401.183L704.166 397.392C704.112 397.356 704.051 397.332 703.988 397.32C703.924 397.308 703.859 397.308 703.795 397.321C703.732 397.334 703.672 397.359 703.618 397.395C703.565 397.431 703.519 397.476 703.483 397.53C703.448 397.583 703.423 397.643 703.411 397.705C703.399 397.768 703.4 397.832 703.413 397.895C703.427 397.957 703.452 398.016 703.489 398.069C703.526 398.121 703.572 398.166 703.627 398.201L708.881 401.587L703.85 404.828C703.752 404.891 703.681 404.986 703.648 405.096C703.615 405.205 703.622 405.323 703.669 405.428C703.716 405.533 703.799 405.618 703.903 405.668C704.008 405.719 704.127 405.731 704.24 405.703H704.24Z" fill="#2D2775"/>
<path d="M695.301 406.108C695.396 406.085 695.482 406.034 695.547 405.962C695.612 405.89 695.654 405.8 695.668 405.705C695.681 405.609 695.665 405.512 695.622 405.426C695.579 405.339 695.51 405.267 695.425 405.219L690.208 402.276L695.251 398.59C695.302 398.552 695.346 398.505 695.379 398.45C695.412 398.396 695.434 398.335 695.444 398.272C695.453 398.21 695.45 398.145 695.434 398.084C695.418 398.022 695.39 397.964 695.352 397.913C695.313 397.862 695.265 397.819 695.21 397.787C695.154 397.754 695.093 397.733 695.029 397.723C694.965 397.714 694.9 397.717 694.838 397.733C694.775 397.748 694.716 397.776 694.664 397.814L689.019 401.94C688.954 401.988 688.901 402.051 688.867 402.124C688.832 402.197 688.816 402.277 688.821 402.357C688.826 402.437 688.851 402.515 688.894 402.583C688.937 402.652 688.997 402.708 689.068 402.748L694.936 406.059C695.046 406.121 695.177 406.139 695.301 406.108Z" fill="#2D2775"/>
<path d="M703.677 408.897C703.725 408.886 703.77 408.867 703.812 408.841C703.867 408.808 703.915 408.765 703.953 408.714C703.991 408.662 704.019 408.604 704.034 408.542C704.05 408.481 704.052 408.416 704.042 408.354C704.033 408.291 704.01 408.23 703.977 408.176L695.954 395.196C695.886 395.086 695.776 395.008 695.65 394.977C695.523 394.947 695.389 394.968 695.278 395.035C695.167 395.101 695.087 395.209 695.056 395.334C695.025 395.458 695.046 395.59 695.113 395.699L703.136 408.68C703.191 408.768 703.273 408.837 703.37 408.876C703.468 408.915 703.575 408.923 703.677 408.897Z" fill="#2D2775"/>
<path d="M252.655 252.505H209.184C207.411 252.505 205.973 253.92 205.973 255.666V259.845C205.973 261.59 207.411 263.005 209.184 263.005H252.655C254.428 263.005 255.866 261.59 255.866 259.845V255.666C255.866 253.92 254.428 252.505 252.655 252.505Z" fill="#2D2775"/>
<path d="M277.993 273.505H183.845C182.072 273.505 180.634 274.92 180.634 276.665V280.844C180.634 282.59 182.072 284.004 183.845 284.004H277.993C279.767 284.004 281.204 282.59 281.204 280.844V276.665C281.204 274.92 279.767 273.505 277.993 273.505Z" fill="#E6E6E6"/>
<path d="M277.993 294.504H183.845C182.072 294.504 180.634 295.919 180.634 297.664V301.844C180.634 303.589 182.072 305.004 183.845 305.004H277.993C279.767 305.004 281.204 303.589 281.204 301.844V297.664C281.204 295.919 279.767 294.504 277.993 294.504Z" fill="#E6E6E6"/>
<path d="M285.975 364.823L286.188 365.485L286.199 365.507L292.618 384.712L300.002 406.844L313.894 448.435L314.029 454.895V454.917L315.061 506.889L312.2 513.935L315.421 525.487C315.421 525.487 313.939 508.025 305.994 518.053C301.494 523.751 296.231 529.582 291.911 535.049C298.206 537.556 304.603 539.824 311.1 541.852C312.503 542.294 313.917 542.713 315.331 543.133C315.634 543.221 315.937 543.31 316.24 543.398C337.778 549.666 360.044 553.189 382.493 553.879C383.66 553.912 384.805 553.934 385.916 553.956C386.309 553.967 386.69 553.978 387.072 553.978C388.329 553.989 389.574 554 390.831 554C393.367 554 395.892 553.963 398.406 553.89C417.011 553.374 435.507 550.912 453.583 546.545C453.46 539.201 453.123 530.621 452.641 521.454C452.416 516.959 447.378 512.089 447.075 507.385C446.862 503.851 451.384 500.526 451.148 496.937C449.622 474.839 447.714 483.322 446.3 467.673C446.155 466.138 446.02 464.669 445.896 463.266C444.987 453.217 444.359 446.933 444.359 446.933L450.396 409.484L459.879 350.687L459.149 349.505L458.33 349.108L408.315 324.745L405.599 317.898C404.808 315.925 403.435 314.231 401.657 313.032C399.879 311.834 397.778 311.186 395.623 311.172L362.676 311.04C360.966 311.032 359.279 311.426 357.754 312.189C356.23 312.951 354.913 314.06 353.911 315.424L344.99 327.583L285.975 364.823Z" fill="#3F3D56"/>
<path d="M321.492 439.18L314.029 454.895L308.935 465.63L300.17 510.788L295.782 515.371L292.023 499.146L252.677 507.744C251.387 500.687 252.332 507.982 251.535 500.241C251.759 500.02 251.995 499.799 252.231 499.578C252.859 499.004 253.387 498.463 253.375 497.944C252.926 471.24 254.273 425.795 265.517 398.263C267.278 393.768 269.6 389.505 272.43 385.574C272.654 385.276 272.868 384.977 273.081 384.679C278.265 377.534 281.542 370.499 286.188 365.496V365.485C286.217 365.462 286.243 365.436 286.266 365.408C286.283 365.4 286.298 365.389 286.311 365.375L318.226 348.721L319.595 386.579L320.571 413.79L321.492 439.18Z" fill="#3F3D56"/>
<path d="M436.57 443.644L445.892 463.272L449.145 470.107L457.907 515.261L462.28 519.833L466.048 503.612L467.819 503.255L499.749 496.747L509.055 525.834C511.153 522.395 511.979 518.348 511.394 514.378C510.81 510.408 508.85 506.759 505.847 504.047C505.211 503.481 504.682 502.93 504.697 502.409C505.227 471.001 503.274 413.65 485.645 390.046C480.046 382.555 476.687 375.094 471.799 369.882C471.784 369.867 471.784 369.852 471.769 369.852L459.874 350.685L459.148 349.509L458.331 349.107L436.57 443.644Z" fill="#3F3D56"/>
<path d="M380.101 301.812C404.309 301.812 423.933 282.499 423.933 258.676C423.933 234.852 404.309 215.539 380.101 215.539C355.893 215.539 336.269 234.852 336.269 258.676C336.269 282.499 355.893 301.812 380.101 301.812Z" fill="#A0616A"/>
<path d="M439.345 228.545C439.006 228.188 438.596 227.901 438.141 227.704C437.687 227.506 437.196 227.4 436.699 227.393L437.358 225.592C437.573 225.025 437.631 224.412 437.526 223.815C437.422 223.219 437.157 222.66 436.761 222.197C436.365 221.734 435.85 221.383 435.271 221.18C434.691 220.977 434.067 220.93 433.463 221.042L431.063 221.497L431.289 219.919C431.376 219.331 431.305 218.732 431.085 218.179C430.865 217.626 430.502 217.139 430.033 216.766C429.563 216.392 429.003 216.146 428.408 216.051C427.812 215.955 427.201 216.014 426.636 216.221C426.121 216.42 425.568 216.504 425.017 216.465C424.465 216.427 423.929 216.267 423.449 215.998C422.966 215.738 422.547 215.377 422.221 214.94C421.895 214.504 421.669 214.003 421.56 213.472L420.724 209.502L420.635 209.289C416.563 202.609 408.732 197.75 399.151 195.968C390.622 194.371 381.877 195.184 373.447 195.949C370.102 196.259 366.325 196.607 363.177 198.505C360.501 200.131 358.239 203.384 358.701 206.666C350.389 204.158 341.476 209.163 337.06 215.475C331.826 222.988 330.97 232.398 330.833 239.755C330.459 257.162 334.108 271.402 341.653 282.09C342.204 282.865 342.342 284.481 343.434 285.023L343.208 284.665C344.428 285.265 345.667 286.234 345.205 287.269C343.877 290.251 352.7 296.844 358.918 299.022C370.26 303.001 385.34 302.662 395.944 301.229L396.318 298.761C400.145 298.248 402.84 297.27 403.597 295.74C404.935 294.617 406.076 293.61 407.07 292.681L407.08 292.671C407.099 292.652 407.139 292.623 407.158 292.604C411.949 288.083 413.061 285.508 413.562 281.587C414.044 277.743 413.189 273.842 412.313 270.328C430.748 273.135 405.053 251.005 422.229 246.726C422.426 246.666 422.626 246.617 422.829 246.58C423.331 246.464 423.832 246.348 424.314 246.213C426.638 245.592 428.863 244.657 430.925 243.434C435.725 240.559 437.309 236.745 439.788 232.446C440.146 231.834 440.296 231.126 440.216 230.424C440.136 229.722 439.831 229.064 439.345 228.545Z" fill="#2F2E41"/>
<path d="M535.129 446.715C535.119 448.409 535.099 450.781 535.021 453.714C535.011 454.121 535.001 454.537 534.991 454.963C534.863 460.355 534.735 464.876 534.529 469.901C534.519 470.249 534.509 470.588 534.489 470.936C534.214 477.945 533.781 486.107 533.034 499.031C531.646 522.904 529.227 502.312 526.797 510.686C526.679 511.103 526.551 511.597 526.433 512.177C526.065 514.285 525.444 516.342 524.583 518.305C523.295 519.06 521.967 519.787 520.658 520.513C516.93 522.555 513.143 524.521 509.326 526.389C507.182 527.435 505.027 528.461 502.863 529.448C502.519 529.603 502.185 529.758 501.85 529.903C490.768 534.948 479.346 539.237 467.666 542.74C465.384 543.418 463.112 544.076 460.81 544.686C458.41 545.344 456.009 545.964 453.58 546.545C435.504 550.912 417.008 553.375 398.404 553.893C395.895 553.97 393.367 553.999 390.829 553.999C389.57 553.999 388.33 553.989 387.071 553.98C386.688 553.98 386.304 553.97 385.92 553.96C384.809 553.931 383.658 553.912 382.497 553.883C360.048 553.194 337.781 549.67 316.244 543.398L315.329 543.137C313.913 542.711 312.506 542.295 311.1 541.849C304.607 539.826 298.21 537.561 291.907 535.053C287.097 533.146 282.342 531.1 277.644 528.916C277.601 528.904 277.561 528.885 277.526 528.858C276.542 528.412 275.548 527.948 274.565 527.473C274.437 527.406 274.299 527.338 274.161 527.27C270.492 525.508 266.862 523.662 263.272 521.732C260.252 514.907 256.002 513.6 253.366 507.598C252.598 505.815 252.044 503.95 251.713 502.041C251.713 502.022 251.703 502.003 251.703 501.974C251.979 505.575 250.533 495.584 251.693 501.935C251.684 501.819 251.674 501.693 251.664 501.548C251.634 501.199 251.595 500.773 251.536 500.241C248.162 467.819 248.378 430.741 246.913 400.188C246.814 398.213 246.713 396.322 246.608 394.515C246.578 393.915 246.539 393.324 246.5 392.743C246.568 392.569 246.647 392.385 246.736 392.211C246.754 392.161 246.777 392.112 246.804 392.066C246.833 392.006 246.866 391.948 246.903 391.892C246.923 391.862 246.952 391.824 246.972 391.795C246.986 391.761 247.002 391.729 247.021 391.698C247.109 391.562 247.208 391.417 247.316 391.282C247.365 391.224 247.405 391.175 247.454 391.127C247.488 391.077 247.527 391.032 247.572 390.991C247.602 390.945 247.638 390.902 247.68 390.865C247.719 390.827 247.759 390.778 247.808 390.73C247.829 390.699 247.856 390.673 247.887 390.652C247.964 390.564 248.05 390.483 248.142 390.41C248.493 390.093 248.868 389.801 249.264 389.539C249.401 389.452 249.549 389.365 249.687 389.268C250.678 388.684 251.722 388.192 252.805 387.797C253.179 387.661 253.553 387.535 253.956 387.4C254.104 387.361 254.241 387.312 254.389 387.264C254.605 387.196 254.822 387.129 255.048 387.08C256.169 386.751 257.379 386.47 258.688 386.209C258.845 386.18 259.012 386.151 259.179 386.112C259.416 386.064 259.662 386.025 259.907 385.986C260.242 385.928 260.586 385.87 260.93 385.812C263.852 385.357 267.167 385.018 270.827 384.795C271.171 384.776 271.515 384.757 271.859 384.737C272.263 384.718 272.666 384.699 273.079 384.679C273.424 384.66 273.778 384.65 274.132 384.641C274.476 384.621 274.83 384.611 275.194 384.602C276.188 384.573 277.211 384.544 278.254 384.524C281.224 384.466 284.353 384.486 287.638 384.553C289.163 384.592 290.717 384.631 292.311 384.699C292.419 384.699 292.517 384.708 292.616 384.708C294.003 384.757 295.4 384.815 296.836 384.892C297.839 384.941 298.852 384.989 299.866 385.047C300.82 385.105 301.784 385.163 302.758 385.231C303.515 385.27 304.273 385.328 305.04 385.376C305.689 385.425 306.338 385.473 306.988 385.512L307.873 385.57C308.355 385.609 308.837 385.638 309.329 385.686C310.411 385.773 311.493 385.86 312.595 385.947C313.687 386.044 314.798 386.141 315.91 386.238C317.021 386.335 318.143 386.441 319.264 386.548C319.382 386.557 319.491 386.567 319.599 386.577C320.622 386.683 321.645 386.78 322.678 386.886C322.914 386.906 323.16 386.925 323.396 386.954C324.381 387.052 325.385 387.166 326.378 387.27C326.683 387.302 326.987 387.333 327.293 387.366C328.071 387.45 328.839 387.522 329.623 387.613C330.655 387.729 331.708 387.835 332.731 387.971C333.528 388.058 334.325 388.145 335.122 388.242C336.371 388.387 337.64 388.542 338.909 388.707C339.391 388.765 339.873 388.823 340.355 388.89C343.975 389.336 347.634 389.83 351.353 390.343C356.989 391.127 362.714 391.979 368.479 392.898C374.253 393.818 380.061 394.789 385.9 395.812C387.376 396.074 388.852 396.335 390.337 396.606C391.006 396.732 391.675 396.858 392.344 396.984C393.485 397.187 394.626 397.4 395.767 397.613C396.908 397.826 398.049 398.039 399.19 398.262C400.548 398.523 401.915 398.784 403.273 399.046C412.215 400.788 421.107 402.647 429.784 404.593C431.21 404.912 432.636 405.242 434.053 405.561C436.886 406.21 439.693 406.868 442.473 407.536C443.241 407.71 443.998 407.894 444.756 408.078C446.644 408.543 448.533 409.007 450.392 409.482L450.717 409.569C452.084 409.898 453.422 410.237 454.76 410.585C457.918 411.399 461.023 412.222 464.076 413.054C466.102 413.606 468.106 414.164 470.086 414.729C473.047 415.571 475.949 416.423 478.772 417.285C479.471 417.498 480.169 417.711 480.858 417.914C482.923 418.543 484.96 419.182 486.937 419.821C488.511 420.324 490.045 420.838 491.56 421.351C493.075 421.864 494.561 422.377 496.017 422.89C496.951 423.219 497.876 423.568 498.8 423.897C500.128 424.381 501.437 424.865 502.716 425.349C503.109 425.494 503.493 425.649 503.876 425.794C504.122 425.901 504.358 425.988 504.594 426.085C505.057 426.269 505.529 426.443 505.982 426.627C506.444 426.801 506.896 426.985 507.349 427.179C507.792 427.353 508.244 427.537 508.677 427.721C509.12 427.895 509.552 428.079 509.985 428.273C510.349 428.418 510.703 428.573 511.048 428.728C511.746 429.028 512.444 429.328 513.123 429.638C513.458 429.792 513.792 429.938 514.127 430.093L514.894 430.441C515.002 430.499 515.11 430.548 515.218 430.596C515.464 430.712 515.72 430.838 515.966 430.954C516.537 431.216 517.097 431.496 517.648 431.758C518.386 432.126 519.104 432.493 519.793 432.852C520.491 433.219 521.17 433.587 521.819 433.946C521.927 434.004 522.026 434.062 522.134 434.12C522.282 434.197 522.429 434.284 522.577 434.362C523.078 434.643 523.56 434.933 524.042 435.214C524.987 435.785 525.882 436.346 526.718 436.908C526.905 437.034 527.082 437.16 527.269 437.276C527.889 437.711 528.479 438.137 529.03 438.573C529.03 438.583 529.03 438.583 529.04 438.583C529.227 438.718 529.404 438.863 529.581 438.999C529.728 439.134 529.886 439.251 530.033 439.386C530.545 439.822 531.017 440.238 531.45 440.664C531.595 440.796 531.733 440.935 531.863 441.08C531.92 441.127 531.973 441.179 532.02 441.235C532.217 441.429 532.394 441.622 532.561 441.816C532.587 441.843 532.61 441.872 532.63 441.903C532.866 442.174 533.083 442.445 533.289 442.716C533.388 442.852 533.496 442.988 533.584 443.123C533.702 443.288 533.82 443.462 533.919 443.626C534.007 443.762 534.086 443.907 534.165 444.043C534.373 444.392 534.551 444.758 534.696 445.137C534.806 445.394 534.895 445.659 534.961 445.93C535.036 446.188 535.092 446.45 535.129 446.715Z" fill="#2F2E41"/>
<path opacity="0.2" d="M535.129 446.715C535.119 448.409 535.099 450.781 535.021 453.714C535.011 454.121 534.991 454.537 534.981 454.963C534.883 459.077 534.735 464.16 534.529 469.901C534.519 470.249 534.509 470.588 534.489 470.936C534.214 477.945 533.781 486.107 533.033 499.031C531.646 522.904 529.226 502.312 526.797 510.686C520.048 506.601 512.651 502.322 504.742 497.927C503.316 497.133 501.876 496.336 500.424 495.536C484.606 486.852 466.938 477.752 448.494 468.739C447.766 468.381 447.028 468.023 446.3 467.674C404.05 447.121 357.934 427.13 320.572 413.79C313.362 411.215 306.476 408.891 300.003 406.849C286.369 402.56 274.584 399.559 265.514 398.262C256.071 396.906 249.549 397.39 246.913 400.188C246.814 398.213 246.712 396.322 246.608 394.515C246.568 393.915 246.529 393.324 246.49 392.743C246.55 392.584 246.629 392.432 246.705 392.279C246.716 392.256 246.724 392.233 246.735 392.211C246.754 392.161 246.777 392.112 246.804 392.066C246.833 392.006 246.866 391.947 246.903 391.891C246.935 391.823 246.974 391.758 247.021 391.698C247.109 391.562 247.208 391.417 247.316 391.282C247.395 391.18 247.481 391.083 247.572 390.991C247.602 390.945 247.638 390.902 247.68 390.865C247.719 390.827 247.758 390.778 247.808 390.73C247.829 390.699 247.855 390.673 247.886 390.652C247.964 390.564 248.05 390.483 248.142 390.41C248.493 390.093 248.868 389.801 249.264 389.539C249.401 389.452 249.549 389.365 249.687 389.268C250.678 388.684 251.722 388.192 252.805 387.796C253.179 387.661 253.553 387.535 253.956 387.4C254.103 387.361 254.241 387.312 254.389 387.264C254.605 387.196 254.822 387.128 255.048 387.08C256.169 386.751 257.379 386.47 258.687 386.209C259.081 386.131 259.494 386.054 259.907 385.986C260.242 385.928 260.586 385.87 260.93 385.812C263.852 385.357 267.167 385.018 270.826 384.795C271.171 384.776 271.515 384.757 271.859 384.737C272.263 384.718 272.666 384.699 273.079 384.679C273.423 384.66 273.778 384.65 274.132 384.64C274.476 384.621 274.83 384.611 275.194 384.602C276.188 384.573 277.211 384.544 278.253 384.524C281.224 384.476 284.352 384.495 287.638 384.563C289.163 384.592 290.717 384.64 292.311 384.708C292.409 384.708 292.517 384.718 292.616 384.718C294.003 384.757 295.409 384.824 296.836 384.892C297.839 384.941 298.852 384.989 299.865 385.047C300.82 385.105 301.784 385.163 302.758 385.231C303.515 385.27 304.272 385.328 305.04 385.376C305.689 385.425 306.338 385.473 306.987 385.512C307.765 385.57 308.542 385.628 309.329 385.686C310.411 385.773 311.493 385.86 312.595 385.947C313.686 386.044 314.798 386.141 315.91 386.238C317.021 386.335 318.143 386.441 319.264 386.548C319.382 386.557 319.49 386.567 319.599 386.577C320.622 386.683 321.645 386.78 322.678 386.886C328.403 387.458 334.295 388.126 340.355 388.89C343.975 389.345 347.641 389.833 351.353 390.352C356.989 391.136 362.714 391.988 368.479 392.898C374.253 393.818 380.06 394.789 385.9 395.812C387.376 396.074 388.851 396.335 390.337 396.606C392.147 396.935 393.957 397.271 395.767 397.613C396.908 397.826 398.049 398.039 399.19 398.262C400.548 398.523 401.915 398.784 403.273 399.046C412.215 400.788 421.107 402.647 429.784 404.593C431.21 404.912 432.636 405.242 434.053 405.561C436.886 406.21 439.693 406.868 442.473 407.536C443.241 407.72 443.998 407.904 444.756 408.088C446.654 408.552 448.533 409.017 450.392 409.482V409.491C450.5 409.511 450.609 409.54 450.717 409.569C452.074 409.908 453.422 410.247 454.76 410.595C457.918 411.408 461.023 412.228 464.076 413.054C466.102 413.615 468.109 414.167 470.086 414.729C473.047 415.581 475.949 416.433 478.772 417.285C479.471 417.498 480.169 417.711 480.858 417.914C482.923 418.553 484.95 419.189 486.937 419.821C488.511 420.324 490.045 420.838 491.56 421.351C493.075 421.864 494.561 422.377 496.016 422.89C496.961 423.219 497.886 423.558 498.8 423.887C500.138 424.371 501.437 424.855 502.716 425.349C503.109 425.494 503.493 425.649 503.876 425.794C504.594 426.065 505.293 426.346 505.981 426.627C506.444 426.801 506.896 426.985 507.349 427.179C507.791 427.353 508.244 427.537 508.677 427.721C509.119 427.895 509.552 428.079 509.985 428.273C510.349 428.418 510.703 428.573 511.048 428.728C511.746 429.028 512.444 429.328 513.123 429.638C513.458 429.792 513.792 429.938 514.127 430.093L514.894 430.441C515.002 430.499 515.11 430.548 515.218 430.596C516.055 430.983 516.861 431.37 517.648 431.758C518.386 432.126 519.104 432.493 519.793 432.852C520.609 433.278 521.386 433.694 522.134 434.12C522.281 434.197 522.429 434.284 522.577 434.362C523.078 434.643 523.56 434.933 524.042 435.214C524.987 435.785 525.882 436.346 526.718 436.908C527.544 437.469 528.312 438.021 529.03 438.573C529.03 438.583 529.03 438.583 529.04 438.583C529.384 438.854 529.718 439.125 530.033 439.386C530.545 439.822 531.017 440.238 531.45 440.664C531.595 440.796 531.733 440.934 531.863 441.08C531.92 441.127 531.973 441.179 532.02 441.235C532.227 441.458 532.433 441.681 532.63 441.903C532.866 442.174 533.083 442.445 533.289 442.716C533.388 442.852 533.496 442.987 533.584 443.123C533.702 443.288 533.82 443.462 533.919 443.626C534.007 443.762 534.086 443.907 534.165 444.043C534.373 444.392 534.551 444.758 534.696 445.137C534.803 445.395 534.892 445.66 534.962 445.931C535.036 446.188 535.092 446.45 535.129 446.715Z" fill="black"/>
</g>
<defs>
<clipPath id="clip0_21_7">
<rect width="774" height="554" fill="white"/>
</clipPath>
</defs>
</svg>
