<svg width="788" height="499" viewBox="0 0 788 499" fill="none" xmlns="http://www.w3.org/2000/svg">
<g clip-path="url(#clip0_22_125)">
<path d="M394 499C611.6 499 788 487.837 788 474.067C788 460.297 611.6 449.134 394 449.134C176.4 449.134 0 460.297 0 474.067C0 487.837 176.4 499 394 499Z" fill="#F2F2F2"/>
<path d="M717.383 0H125.483V20.7192H717.383V0Z" fill="#F2F2F2"/>
<path d="M141.322 15.4165C144.014 15.4165 146.196 13.0158 146.196 10.0543C146.196 7.09278 144.014 4.69202 141.322 4.69202C138.63 4.69202 136.448 7.09278 136.448 10.0543C136.448 13.0158 138.63 15.4165 141.322 15.4165Z" fill="#2D2775"/>
<path d="M157.161 15.4165C159.853 15.4165 162.035 13.0158 162.035 10.0543C162.035 7.09278 159.853 4.69202 157.161 4.69202C154.469 4.69202 152.287 7.09278 152.287 10.0543C152.287 13.0158 154.469 15.4165 157.161 15.4165Z" fill="#2D2775"/>
<path d="M173 15.4165C175.692 15.4165 177.874 13.0158 177.874 10.0543C177.874 7.09278 175.692 4.69202 173 4.69202C170.309 4.69202 168.127 7.09278 168.127 10.0543C168.127 13.0158 170.309 15.4165 173 15.4165Z" fill="#2D2775"/>
<path d="M125.902 327.693L125.483 328.089V467.856H717.383V222.35L710.329 222.939L125.902 327.693Z" fill="#3F3D56"/>
<path d="M333.487 138.597H168.199V145.93H333.487V138.597Z" fill="#3F3D56"/>
<path d="M333.487 154.73H168.199V162.063H333.487V154.73Z" fill="#3F3D56"/>
<path d="M224.184 170.863H168.199V178.196H224.184V170.863Z" fill="#3F3D56"/>
<path d="M670.561 342.183H505.273V349.517H670.561V342.183Z" fill="white"/>
<path d="M670.561 358.317H505.273V365.65H670.561V358.317Z" fill="white"/>
<path d="M561.258 374.449H505.273V381.783H561.258V374.449Z" fill="white"/>
<path d="M402.578 461.096C406.169 461.096 409.08 457.893 409.08 453.942C409.08 449.991 406.169 446.788 402.578 446.788C398.987 446.788 396.076 449.991 396.076 453.942C396.076 457.893 398.987 461.096 402.578 461.096Z" fill="#F2F2F2"/>
<path d="M421.433 461.811C425.024 461.811 427.935 458.608 427.935 454.657C427.935 450.706 425.024 447.503 421.433 447.503C417.842 447.503 414.931 450.706 414.931 454.657C414.931 458.608 417.842 461.811 421.433 461.811Z" fill="#F2F2F2"/>
<path d="M440.288 462.526C443.879 462.526 446.79 459.323 446.79 455.373C446.79 451.422 443.879 448.219 440.288 448.219C436.697 448.219 433.786 451.422 433.786 455.373C433.786 459.323 436.697 462.526 440.288 462.526Z" fill="#F2F2F2"/>
<path d="M421.493 460.38C424.365 460.38 426.694 457.818 426.694 454.657C426.694 451.496 424.365 448.934 421.493 448.934C418.62 448.934 416.291 451.496 416.291 454.657C416.291 457.818 418.62 460.38 421.493 460.38Z" fill="#3F3D56"/>
<path d="M278.689 222.535H222.705V236.589H278.689V222.535Z" fill="#3F3D56"/>
<path d="M611.46 412.707H555.476V426.761H611.46V412.707Z" fill="white"/>
<path opacity="0.3" d="M251.013 272.248C272.401 272.248 289.74 253.171 289.74 229.637C289.74 206.104 272.401 187.026 251.013 187.026C229.624 187.026 212.285 206.104 212.285 229.637C212.285 253.171 229.624 272.248 251.013 272.248Z" fill="#2D2775"/>
<path opacity="0.3" d="M251.013 258.045C265.272 258.045 276.831 245.326 276.831 229.637C276.831 213.948 265.272 201.23 251.013 201.23C236.753 201.23 225.194 213.948 225.194 229.637C225.194 245.326 236.753 258.045 251.013 258.045Z" fill="#2D2775"/>
<path d="M251.012 249.365C260.915 249.365 268.942 240.532 268.942 229.637C268.942 218.742 260.915 209.91 251.012 209.91C241.11 209.91 233.083 218.742 233.083 229.637C233.083 240.532 241.11 249.365 251.012 249.365Z" fill="#2D2775"/>
<path opacity="0.3" d="M576.88 166.645C598.269 166.645 615.608 147.567 615.608 124.034C615.608 100.5 598.269 81.4229 576.88 81.4229C555.492 81.4229 538.153 100.5 538.153 124.034C538.153 147.567 555.492 166.645 576.88 166.645Z" fill="#2D2775"/>
<path opacity="0.3" d="M576.88 152.441C591.14 152.441 602.699 139.723 602.699 124.034C602.699 108.345 591.14 95.6266 576.88 95.6266C562.621 95.6266 551.062 108.345 551.062 124.034C551.062 139.723 562.621 152.441 576.88 152.441Z" fill="#2D2775"/>
<path d="M576.881 143.761C586.783 143.761 594.81 134.929 594.81 124.034C594.81 113.139 586.783 104.307 576.881 104.307C566.978 104.307 558.951 113.139 558.951 124.034C558.951 134.929 566.978 143.761 576.881 143.761Z" fill="#2D2775"/>
<path opacity="0.3" d="M583.783 462.42C605.172 462.42 622.511 443.343 622.511 419.809C622.511 396.276 605.172 377.198 583.783 377.198C562.395 377.198 545.056 396.276 545.056 419.809C545.056 443.343 562.395 462.42 583.783 462.42Z" fill="#2D2775"/>
<path opacity="0.3" d="M583.783 448.216C598.042 448.216 609.602 435.498 609.602 419.809C609.602 404.12 598.042 391.402 583.783 391.402C569.524 391.402 557.965 404.12 557.965 419.809C557.965 435.498 569.524 448.216 583.783 448.216Z" fill="#2D2775"/>
<path d="M583.783 439.537C593.686 439.537 601.713 430.704 601.713 419.809C601.713 408.914 593.686 400.082 583.783 400.082C573.881 400.082 565.854 408.914 565.854 419.809C565.854 430.704 573.881 439.537 583.783 439.537Z" fill="#2D2775"/>
<path d="M64.4902 86.2963L80.4299 86.9764L81.2246 64.4274L65.2849 63.7474L64.4902 86.2963Z" fill="#2D2775"/>
<path d="M137.189 142.719C137.189 142.719 159.263 131.115 158.91 141.136C158.557 151.158 136.659 157.752 136.659 157.752L137.189 142.719Z" fill="#A0616A"/>
<path d="M125.078 227.515C125.078 227.515 135.493 255.561 139.34 275.799C143.188 296.037 149.048 323.888 141.51 343.64C133.973 363.392 112.542 421.445 112.321 427.708C112.101 433.972 114.157 440.333 109.603 440.138C105.049 439.944 80.2654 431.359 79.2593 427.552C78.2532 423.745 87.7148 414.112 87.7148 414.112L111.079 333.56L86.7021 281.081L69.1194 359.371L65.6756 457.083C65.6756 457.083 48.7739 451.344 46.3202 456.257C46.3202 456.257 38.7477 444.643 37.7857 439.583C36.8238 434.524 41.362 338.113 41.362 338.113C41.362 338.113 25.8477 228.3 38.3718 228.834C50.8959 229.369 99.9513 196.333 125.078 227.515Z" fill="#2F2E41"/>
<path d="M109.779 435.127C109.779 435.127 121.332 463.222 122.427 464.523C123.521 465.824 131.049 478.691 125.357 478.449C119.664 478.206 106.222 471.359 96.3282 460.9C86.4344 450.441 73.3899 432.32 74.5726 431.116C75.7553 429.912 83.8576 426.494 83.8576 426.494L109.779 435.127Z" fill="#2F2E41"/>
<path d="M63.6192 450.722C63.6192 450.722 64.3163 463.298 66.4168 468.406C68.5173 473.514 68.2524 481.03 62.5596 480.787C56.8668 480.545 42.154 477.408 42.154 477.408C42.154 477.408 41.2803 469.843 42.463 468.639C43.6457 467.434 48.6856 453.849 46.5409 449.993C44.3963 446.138 63.6192 450.722 63.6192 450.722Z" fill="#2F2E41"/>
<path d="M55.1973 42.616C55.1973 42.616 43.0612 63.4265 38.3303 68.243C33.5995 73.0596 46.9089 83.6643 46.9089 83.6643L70.7302 87.1899C70.7302 87.1899 70.4306 63.3396 71.6574 60.8827C72.8843 58.4259 55.1973 42.616 55.1973 42.616Z" fill="#A0616A"/>
<path d="M75.9025 69.8461C75.9025 69.8461 70.9951 79.6736 66.4409 79.4792C61.8867 79.2849 38.3303 68.243 37.3241 64.4363C36.318 60.6295 29.5215 91.7047 29.5215 91.7047L87.1623 203.315L101.222 192.623L94.4097 127.093L88.8146 91.7253L75.9025 69.8461Z" fill="#2D2775"/>
<path d="M35.1981 169.732C37.4974 175.025 38.9334 180.543 38.7343 186.193C38.7254 186.444 38.7166 186.694 38.6964 186.944C38.1509 198.539 34.269 211.948 32.8762 221.699C31.8657 228.695 32.1533 233.801 35.8738 235.001C44.894 237.895 34.5587 239.963 69.4564 252.744C104.354 265.524 110.444 254.492 110.533 251.987C110.621 249.481 105.59 230.448 106.773 229.244C107.956 228.039 123.322 245.005 127.964 242.694C132.607 240.383 128.494 227.661 128.494 227.661C128.494 227.661 118.036 200.868 118.256 194.605C118.477 188.341 102.414 158.8 102.414 158.8L91.489 80.5479C91.489 80.5479 87.288 70.3318 81.6394 68.8362C75.9908 67.3406 71.3041 70.9044 71.3041 70.9044L80.7564 93.8907L90.7291 134.464L89.0608 149.448C89.0608 149.448 77.4638 122.606 69.8472 112.244C62.2305 101.882 45.9911 77.3521 45.9911 77.3521C45.9911 77.3521 42.1998 63.2767 45.0618 59.0704C47.9244 54.8516 33.1232 54.2201 26.8123 71.5153C23.4675 80.6818 18.037 94.3512 14.6352 107.078C11.6038 118.353 10.1719 128.894 13.1751 134.918C17.7652 144.122 29.3116 156.22 35.1981 169.732Z" fill="#575A89"/>
<path opacity="0.1" d="M13.1751 134.918C17.7652 144.122 29.3116 156.22 35.1981 169.732C36.7356 163.638 38.6112 157.332 38.6112 157.332C38.6112 157.332 45.8051 114.982 24.5258 104.038C21 103.663 17.4736 104.747 14.6352 107.078C11.6038 118.353 10.1719 128.894 13.1751 134.918Z" fill="black"/>
<path d="M97.6487 132.25L115.689 138.038L140.737 139.106L143.314 163.054L102.149 166.316C102.149 166.316 91.8677 134.512 97.6487 132.25Z" fill="#575A89"/>
<path d="M68.2317 212.768C68.2317 212.768 92.3659 217.174 86.8575 225.165C81.3492 233.156 59.9691 224.755 59.9691 224.755L68.2317 212.768Z" fill="#A0616A"/>
<path opacity="0.1" d="M38.6965 186.944C38.151 198.539 34.2691 211.948 32.8763 221.7C40.5646 229.706 47.8757 236.767 50.631 236.885C56.3237 237.128 65.4763 236.264 68.8478 237.662C72.2193 239.061 74.1967 215.308 74.1967 215.308C74.1967 215.308 72.1845 207.694 63.2086 203.547C57.15 200.742 45.5366 193.133 38.6965 186.944Z" fill="black"/>
<path d="M24.7907 96.5213C24.7907 96.5213 5.52363 93.19 6.56451 128.363C7.60539 163.537 4.53356 185.989 12.2827 192.592C20.0318 199.196 45.203 229.126 50.8958 229.369C56.5886 229.612 65.7411 228.748 69.1126 230.146C72.4842 231.544 74.4616 207.791 74.4616 207.791C74.4616 207.791 72.4494 200.178 63.4734 196.031C54.4974 191.884 33.3506 177.181 33.5272 172.17C33.7038 167.159 38.8761 149.816 38.8761 149.816C38.8761 149.816 46.07 107.466 24.7907 96.5213Z" fill="#575A89"/>
<path d="M72.1872 73.4306C86.0313 73.4306 97.2542 61.0824 97.2542 45.85C97.2542 30.6177 86.0313 18.2694 72.1872 18.2694C58.3431 18.2694 47.1202 30.6177 47.1202 45.85C47.1202 61.0824 58.3431 73.4306 72.1872 73.4306Z" fill="#A0616A"/>
<path d="M89.0655 6.31903C89.6701 6.89219 90.3941 7.29197 91.1731 7.48277C91.5642 7.55948 91.967 7.46285 92.2935 7.21396C92.6201 6.96508 92.8439 6.58416 92.9161 6.15436C93.4896 7.46301 94.1367 8.85776 95.3076 9.52924C96.4785 10.2007 98.2891 9.63767 98.4579 8.19674C98.6289 9.2908 99.0688 10.3125 99.7299 11.151C100.456 11.9132 101.774 12.1055 102.408 11.2495C101.895 14.3329 102.212 17.5038 102.051 20.6333C101.89 23.7629 101.131 27.0806 98.9824 29.1385C95.8484 32.1397 91.1357 31.399 87.0132 30.8304C86.3898 30.6865 85.7429 30.7254 85.1375 30.9433C83.5939 31.6669 83.664 34.0311 83.6431 35.8771C83.5172 39.116 82.3522 42.201 80.3548 44.5843C78.3575 46.9676 75.6571 48.4949 72.7333 48.8951C71.097 49.173 69.4273 48.7247 68.0914 47.6487C66.9209 46.5571 66.323 44.7779 64.9818 43.9579C62.8001 42.624 60.1541 44.5693 58.559 46.6815C56.9639 48.7937 55.3918 51.3919 52.9207 51.7785C49.6526 52.2898 47.1635 48.6253 45.9422 45.251C44.2574 40.5216 43.4501 35.469 43.5682 30.3909C43.6862 25.3128 44.7271 20.3122 46.6296 15.6838C53.4535 -0.682878 76.7641 -3.27159 89.0655 6.31903Z" fill="#2F2E41"/>
<path d="M690.802 444.868C699.631 461.433 717.436 467.991 717.436 467.991C717.436 467.991 720.928 447.692 712.099 431.127C703.271 414.562 685.466 408.004 685.466 408.004C685.466 408.004 681.974 428.303 690.802 444.868Z" fill="#F2F2F2"/>
<path d="M696.311 439.086C711.579 448.39 717.975 467.813 717.975 467.813C717.975 467.813 699.617 472.153 684.35 462.849C669.082 453.545 662.686 434.121 662.686 434.121C662.686 434.121 681.044 429.782 696.311 439.086Z" fill="#2D2775"/>
</g>
<defs>
<clipPath id="clip0_22_125">
<rect width="788" height="499" fill="white"/>
</clipPath>
</defs>
</svg>
